<svg width="142" height="35" viewBox="0 0 142 35" fill="none" xmlns="http://www.w3.org/2000/svg">
<path d="M56.754 9.71V25H54.246V14.528L49.582 25H47.844L43.158 14.528V25H40.65V9.71H43.356L48.724 21.7L54.07 9.71H56.754ZM70.9624 12.878L63.5264 30.698H60.9304L63.3944 24.802L58.6204 12.878H61.4144L64.8244 22.118L68.3664 12.878H70.9624ZM94.6739 9.71V25H92.1659V14.528L87.5019 25H85.7639L81.0779 14.528V25H78.5699V9.71H81.2759L86.6439 21.7L91.9899 9.71H94.6739ZM108.948 12.878V25H106.44V23.57C106.044 24.0687 105.524 24.4647 104.878 24.758C104.248 25.0367 103.573 25.176 102.854 25.176C101.901 25.176 101.043 24.978 100.28 24.582C99.5323 24.186 98.9383 23.5993 98.4983 22.822C98.073 22.0447 97.8603 21.106 97.8603 20.006V12.878H100.346V19.632C100.346 20.7173 100.618 21.5533 101.16 22.14C101.703 22.712 102.444 22.998 103.382 22.998C104.321 22.998 105.062 22.712 105.604 22.14C106.162 21.5533 106.44 20.7173 106.44 19.632V12.878H108.948ZM116.657 25.198C115.704 25.198 114.846 25.0293 114.083 24.692C113.335 24.34 112.741 23.8707 112.301 23.284C111.861 22.6827 111.627 22.0153 111.597 21.282H114.193C114.237 21.7953 114.479 22.228 114.919 22.58C115.374 22.9173 115.939 23.086 116.613 23.086C117.317 23.086 117.86 22.954 118.241 22.69C118.637 22.4113 118.835 22.0593 118.835 21.634C118.835 21.1793 118.615 20.842 118.175 20.622C117.75 20.402 117.068 20.16 116.129 19.896C115.22 19.6467 114.479 19.4047 113.907 19.17C113.335 18.9353 112.837 18.576 112.411 18.092C112.001 17.608 111.795 16.97 111.795 16.178C111.795 15.5327 111.986 14.946 112.367 14.418C112.749 13.8753 113.291 13.45 113.995 13.142C114.714 12.834 115.535 12.68 116.459 12.68C117.838 12.68 118.945 13.032 119.781 13.736C120.632 14.4253 121.087 15.3713 121.145 16.574H118.637C118.593 16.0313 118.373 15.5987 117.977 15.276C117.581 14.9533 117.046 14.792 116.371 14.792C115.711 14.792 115.205 14.9167 114.853 15.166C114.501 15.4153 114.325 15.7453 114.325 16.156C114.325 16.4787 114.443 16.75 114.677 16.97C114.912 17.19 115.198 17.366 115.535 17.498C115.873 17.6153 116.371 17.7693 117.031 17.96C117.911 18.1947 118.63 18.4367 119.187 18.686C119.759 18.9207 120.251 19.2727 120.661 19.742C121.072 20.2113 121.285 20.8347 121.299 21.612C121.299 22.3013 121.109 22.9173 120.727 23.46C120.346 24.0027 119.803 24.428 119.099 24.736C118.41 25.044 117.596 25.198 116.657 25.198ZM125.285 11.272C124.831 11.272 124.449 11.118 124.141 10.81C123.833 10.502 123.679 10.1207 123.679 9.666C123.679 9.21133 123.833 8.83 124.141 8.522C124.449 8.214 124.831 8.06 125.285 8.06C125.725 8.06 126.099 8.214 126.407 8.522C126.715 8.83 126.869 9.21133 126.869 9.666C126.869 10.1207 126.715 10.502 126.407 10.81C126.099 11.118 125.725 11.272 125.285 11.272ZM126.517 12.878V25H124.009V12.878H126.517ZM128.974 18.928C128.974 17.6813 129.223 16.5887 129.722 15.65C130.235 14.6967 130.939 13.9633 131.834 13.45C132.729 12.9367 133.755 12.68 134.914 12.68C136.381 12.68 137.591 13.032 138.544 13.736C139.512 14.4253 140.165 15.4153 140.502 16.706H137.796C137.576 16.1047 137.224 15.6353 136.74 15.298C136.256 14.9607 135.647 14.792 134.914 14.792C133.887 14.792 133.066 15.1587 132.45 15.892C131.849 16.6107 131.548 17.6227 131.548 18.928C131.548 20.2333 131.849 21.2527 132.45 21.986C133.066 22.7193 133.887 23.086 134.914 23.086C136.366 23.086 137.327 22.448 137.796 21.172H140.502C140.15 22.404 139.49 23.3867 138.522 24.12C137.554 24.8387 136.351 25.198 134.914 25.198C133.755 25.198 132.729 24.9413 131.834 24.428C130.939 23.9 130.235 23.1667 129.722 22.228C129.223 21.2747 128.974 20.1747 128.974 18.928Z" fill="#212121"/>
<path d="M27.9773 5.27624C27.9361 5.02948 27.8426 4.7944 27.7029 4.58686C27.5632 4.37931 27.3807 4.20412 27.1676 4.0731C26.9545 3.94208 26.7157 3.85828 26.4675 3.82734C26.2193 3.7964 25.9673 3.81904 25.7285 3.89374L13.4785 7.72274C13.1223 7.83394 12.811 8.05609 12.59 8.35675C12.369 8.65741 12.2498 9.02084 12.25 9.39399V23.625C11.4616 23.0337 10.4966 22.7259 9.51133 22.7515C8.52611 22.7771 7.5784 23.1346 6.82174 23.7661C6.06507 24.3976 5.5438 25.266 5.34236 26.2308C5.14093 27.1955 5.27113 28.2001 5.71189 29.0816C6.15264 29.9631 6.87812 30.6699 7.77078 31.0876C8.66344 31.5053 9.67099 31.6094 10.6302 31.383C11.5894 31.1565 12.444 30.6129 13.0556 29.84C13.6672 29.0672 14 28.1105 14 27.125V14.644L26.25 10.815V20.125C25.4616 19.5337 24.4966 19.2259 23.5113 19.2515C22.5261 19.2771 21.5784 19.6346 20.8217 20.2661C20.0651 20.8976 19.5438 21.766 19.3424 22.7308C19.1409 23.6955 19.2711 24.7001 19.7119 25.5816C20.1526 26.4631 20.8781 27.1699 21.7708 27.5876C22.6634 28.0053 23.671 28.1094 24.6302 27.883C25.5894 27.6565 26.444 27.1129 27.0556 26.34C27.6672 25.5672 28 24.6105 28 23.625V5.56499C28 5.46699 27.9913 5.37074 27.9773 5.27624Z" fill="#212121"/>
</svg>
