<svg width="50" height="50" viewBox="0 0 50 50" fill="none" xmlns="http://www.w3.org/2000/svg">
<path d="M39.9675 7.53748C39.9088 7.18496 39.7751 6.84914 39.5756 6.55264C39.3761 6.25615 39.1153 6.00588 38.8108 5.81871C38.5064 5.63154 38.1653 5.51182 37.8107 5.46762C37.4561 5.42342 37.0961 5.45577 36.755 5.56248L19.255 11.0325C18.7462 11.1913 18.3014 11.5087 17.9857 11.9382C17.6699 12.3677 17.4998 12.8869 17.5 13.42V33.75C16.3737 32.9052 14.9951 32.4655 13.5876 32.5021C12.1802 32.5387 10.8263 33.0494 9.74534 33.9515C8.66439 34.8537 7.91971 36.0943 7.63195 37.4726C7.34418 38.8508 7.53019 40.2858 8.15984 41.5451C8.78949 42.8044 9.82588 43.8142 11.1011 44.4109C12.3763 45.0076 13.8157 45.1563 15.186 44.8328C16.5562 44.5093 17.7771 43.7326 18.6509 42.6286C19.5246 41.5246 20 40.1579 20 38.75V20.92L37.5 15.45V28.75C36.3737 27.9052 34.9951 27.4655 33.5876 27.5021C32.1802 27.5387 30.8263 28.0494 29.7453 28.9515C28.6644 29.8537 27.9197 31.0943 27.6319 32.4726C27.3442 33.8508 27.5302 35.2858 28.1598 36.5451C28.7895 37.8044 29.8259 38.8142 31.1011 39.4109C32.3763 40.0076 33.8157 40.1563 35.186 39.8328C36.5562 39.5093 37.7771 38.7326 38.6509 37.6286C39.5246 36.5246 40 35.1579 40 33.75V7.94998C40 7.80998 39.9875 7.67248 39.9675 7.53748Z" fill="url(#paint0_linear)"/>
<defs>
<linearGradient id="paint0_linear" x1="23.75" y1="5.44843" x2="23.75" y2="45" gradientUnits="userSpaceOnUse">
<stop stop-color="#C0392B"/>
<stop offset="0.375" stop-color="#E74C3C"/>
<stop offset="0.614583" stop-color="#E67E22"/>
<stop offset="1" stop-color="#D35400"/>
</linearGradient>
</defs>
</svg>
