<svg width="1440" height="329" viewBox="0 0 1440 329" fill="none" xmlns="http://www.w3.org/2000/svg">
<path fill-rule="evenodd" clip-rule="evenodd" d="M0 47L60 64.625C120 82.25 240 117.5 360 117.5C480 117.5 600 82.25 720 94C840 105.75 960 164.5 1080 211.5C1200 258.5 1320 293.75 1380 311.375L1440 329H1380C1320 329 1200 329 1080 329C960 329 840 329 720 329C600 329 480 329 360 329C240 329 120 329 60 329H0V47Z" fill="url(#paint0_linear)"/>
<path d="M1578 389L1510.92 369.625C1443.83 350.25 1309.67 311.5 1175.5 259.833C1041.33 208.167 907.167 143.583 773 130.667C638.833 117.75 504.667 156.5 370.5 156.5C236.333 156.5 102.167 117.75 35.0833 98.375L-32 79V389H35.0833C102.167 389 236.333 389 370.5 389C504.667 389 638.833 389 773 389C907.167 389 1041.33 389 1175.5 389C1309.67 389 1443.83 389 1510.92 389H1578ZM1578 389V389Z" stroke="#FDA56A" stroke-width="5"/>
<path d="M1472 345L1410 323.688C1348 302.375 1224 259.75 1100 202.917C976 146.083 852 75.0417 728 60.8333C604 46.625 480 89.25 356 89.25C232 89.25 108 46.625 46 25.3125L-16 4V345H46C108 345 232 345 356 345C480 345 604 345 728 345C852 345 976 345 1100 345C1224 345 1348 345 1410 345H1472ZM1472 345V345Z" stroke="#7B241B" stroke-width="5"/>
<defs>
<linearGradient id="paint0_linear" x1="720" y1="47" x2="720" y2="329" gradientUnits="userSpaceOnUse">
<stop stop-color="#C0392B"/>
<stop offset="0.385417" stop-color="#E74C3C"/>
<stop offset="0.59375" stop-color="#E67E22"/>
<stop offset="1" stop-color="#D35400"/>
</linearGradient>
</defs>
</svg>
